<svg width="20" height="22" viewBox="0 0 20 22" fill="none" xmlns="http://www.w3.org/2000/svg">
<path d="M7.85798 4.14342H12.1437C12.1437 3.57509 11.9179 3.03005 11.5161 2.62819C11.1142 2.22632 10.5692 2.00056 10.0008 2.00056C9.43252 2.00056 8.88747 2.22632 8.48561 2.62819C8.08374 3.03005 7.85798 3.57509 7.85798 4.14342ZM6.57227 4.14342C6.57227 3.2341 6.93349 2.36203 7.57647 1.71905C8.21945 1.07607 9.09152 0.714844 10.0008 0.714844C10.9102 0.714844 11.7822 1.07607 12.4252 1.71905C13.0682 2.36203 13.4294 3.2341 13.4294 4.14342H18.7866C18.957 4.14342 19.1206 4.21114 19.2411 4.3317C19.3617 4.45226 19.4294 4.61578 19.4294 4.78627C19.4294 4.95677 19.3617 5.12028 19.2411 5.24084C19.1206 5.3614 18.957 5.42913 18.7866 5.42913H17.6637L16.6206 17.946C16.5447 18.8566 16.1293 19.7053 15.457 20.3241C14.7846 20.9428 13.9043 21.2862 12.9906 21.2863H7.01112C6.0974 21.2862 5.21707 20.9428 4.5447 20.3241C3.87233 19.7053 3.45702 18.8566 3.38112 17.946L2.33798 5.42913H1.21512C1.04463 5.42913 0.881113 5.3614 0.760554 5.24084C0.639995 5.12028 0.572266 4.95677 0.572266 4.78627C0.572266 4.61578 0.639995 4.45226 0.760554 4.3317C0.881113 4.21114 1.04463 4.14342 1.21512 4.14342H6.57227ZM4.66255 17.8388C4.71157 18.4281 4.98023 18.9773 5.41525 19.3777C5.85027 19.7781 6.41988 20.0004 7.01112 20.0006H12.9906C13.5818 20.0004 14.1514 19.7781 14.5864 19.3777C15.0214 18.9773 15.2901 18.4281 15.3391 17.8388L16.3746 5.42913H3.62798L4.66255 17.8388ZM8.07227 8.42913C8.24276 8.42913 8.40627 8.49686 8.52683 8.61742C8.64739 8.73798 8.71512 8.90149 8.71512 9.07199V16.3577C8.71512 16.5282 8.64739 16.6917 8.52683 16.8123C8.40627 16.9328 8.24276 17.0006 8.07227 17.0006C7.90177 17.0006 7.73826 16.9328 7.6177 16.8123C7.49714 16.6917 7.42941 16.5282 7.42941 16.3577V9.07199C7.42941 8.90149 7.49714 8.73798 7.6177 8.61742C7.73826 8.49686 7.90177 8.42913 8.07227 8.42913ZM12.5723 9.07199C12.5723 8.90149 12.5045 8.73798 12.384 8.61742C12.2634 8.49686 12.0999 8.42913 11.9294 8.42913C11.7589 8.42913 11.5954 8.49686 11.4748 8.61742C11.3543 8.73798 11.2866 8.90149 11.2866 9.07199V16.3577C11.2866 16.5282 11.3543 16.6917 11.4748 16.8123C11.5954 16.9328 11.7589 17.0006 11.9294 17.0006C12.0999 17.0006 12.2634 16.9328 12.384 16.8123C12.5045 16.6917 12.5723 16.5282 12.5723 16.3577V9.07199Z" fill="#4B79F8"/>
</svg>
