<svg width="30" height="42" viewBox="0 0 30 42" fill="none" xmlns="http://www.w3.org/2000/svg">
<path d="M2.68737 41.5008C3.3452 39.3964 4.33731 36.4348 5.66797 32.1532C11.4685 31.2339 13.8684 32.884 17.5518 26.3052C14.5626 27.2202 10.9585 24.6079 11.1513 23.4743C11.3463 22.3429 19.536 24.2908 24.8994 16.6748C18.1389 18.1663 15.9769 14.8833 16.849 14.3883C18.861 13.2439 24.833 13.9125 28.0171 10.8117C29.6585 9.2152 30.4278 5.33433 29.7592 3.94999C28.9578 2.27635 24.068 -0.220173 21.3724 0.0155508C18.6768 0.249131 14.4491 10.2802 13.1934 10.2031C11.942 10.1238 11.687 5.7072 13.8769 1.60347C11.5692 2.62565 7.33934 5.80149 6.01296 8.5166C3.54234 13.5675 6.24438 25.1587 5.3787 25.5701C4.51087 25.9837 1.59455 20.2535 0.724587 17.6541C-0.464654 21.6378 -0.492511 25.628 2.98093 30.9275C1.67169 34.4055 0.956006 38.4085 0.846725 40.4443C0.795298 42.0708 2.3981 42.4201 2.68737 41.5008Z" fill="#4B79F8"/>
</svg>
