<svg width="144" height="14" viewBox="0 0 144 14" fill="none" xmlns="http://www.w3.org/2000/svg">
<path fill-rule="evenodd" clip-rule="evenodd" d="M63.964 3.28099C43.3048 5.56781 40.1115 5.93134 36.917 6.28357C33.3094 6.68133 29.7003 7.06466 0.933695 10.1872C0.470143 10.2375 0.0542767 9.89589 0.00483126 9.42417C-0.0446143 8.95245 0.291085 8.52925 0.754637 8.47893C29.5203 5.35652 33.1287 4.97325 36.7356 4.57556C39.9909 4.21663 43.245 3.84596 64.9908 1.43926C66.0064 1.32687 67.4941 1.14152 69.1117 0.940008C70.7558 0.73519 72.5339 0.513669 74.0865 0.335068C75.5951 0.161535 76.8973 0.0279115 77.5771 0.00402434C77.7406 -0.00172016 77.9149 -0.00329367 78.0571 0.0129146L78.0614 0.0134002C78.1077 0.0185653 78.2805 0.0378483 78.4506 0.133527C78.5382 0.182779 78.7904 0.344607 78.8749 0.693898C78.9668 1.07357 78.7886 1.35449 78.7011 1.46257C78.6116 1.57304 78.5152 1.63772 78.4719 1.66525C78.4189 1.6989 78.3688 1.72402 78.3308 1.74167C78.2546 1.777 78.1723 1.80729 78.0952 1.83318C77.938 1.88596 77.7299 1.94438 77.4756 2.00909C72.5681 3.25759 67.5399 4.29598 62.5188 5.33294C60.2376 5.80405 57.9578 6.27486 55.6914 6.76495C48.9176 8.22974 42.2294 9.8729 35.8361 12.2256C35.9766 12.2148 36.1188 12.2031 36.2634 12.1912L36.2812 12.1897C36.6709 12.1576 37.0784 12.124 37.4846 12.1065C45.5004 11.7619 57.7523 10.5513 65.1098 9.81909C71.1263 9.22036 77.2061 8.41832 83.3131 7.6127C93.7138 6.24065 104.193 4.85821 114.573 4.45194C114.685 4.44759 114.771 4.44431 114.832 4.44255C114.862 4.4417 114.892 4.441 114.918 4.44092C114.926 4.4409 114.937 4.44091 114.95 4.44116C114.957 4.4413 114.964 4.44151 114.972 4.44181C114.983 4.44224 115.001 4.44314 115.023 4.44527L115.024 4.44535C115.038 4.44668 115.094 4.45199 115.162 4.47012C115.189 4.47735 115.283 4.50274 115.388 4.56797C115.459 4.61203 115.818 4.85405 115.791 5.34821C115.769 5.76307 115.48 5.97098 115.439 6.00063L115.437 6.002C115.357 6.06022 115.285 6.09016 115.26 6.10018C115.202 6.12367 115.154 6.13541 115.141 6.13859L115.141 6.13868C115.121 6.14362 115.104 6.14698 115.094 6.1489C115.059 6.15546 115.024 6.1602 115.005 6.16265C114.959 6.16871 114.893 6.17649 114.819 6.18514L114.815 6.18561C114.508 6.22153 113.937 6.28835 113.278 6.3983C113.101 6.42773 112.92 6.45997 112.738 6.49518C116.126 6.54412 119.538 6.48467 122.932 6.40704C126.128 6.33397 129.322 5.88803 132.564 5.43552C132.699 5.41666 132.834 5.39779 132.969 5.37894C136.331 4.91024 139.744 4.45131 143.156 4.45131C143.622 4.45131 144 4.83588 144 5.31028C144 5.78468 143.622 6.16926 143.156 6.16926C139.876 6.16926 136.572 6.61065 133.198 7.08099C133.053 7.10126 132.907 7.12159 132.762 7.14193C129.545 7.59105 126.265 8.04922 122.97 8.12456C119.029 8.21469 115.034 8.28119 111.071 8.18038C111.037 8.17952 110.998 8.17873 110.954 8.17784C110.669 8.17208 110.187 8.16234 109.797 8.10653C109.608 8.07935 109.27 8.02228 109.004 7.84633C108.857 7.74906 108.595 7.52297 108.547 7.12328C108.516 6.86669 108.588 6.65569 108.674 6.50197C100.34 7.09781 92.0029 8.19874 83.6592 9.30059C77.5351 10.1093 71.4073 10.9185 65.2741 11.5289C57.9324 12.2595 45.6284 13.4758 37.5558 13.8229C37.1825 13.839 36.8025 13.8703 36.4019 13.9033L36.3997 13.9035C36.0039 13.9361 35.5881 13.9704 35.1713 13.9879C34.3386 14.0229 33.4464 13.9947 32.5631 13.7338C32.442 13.698 32.0626 13.569 31.8998 13.1447C31.7229 12.684 31.9598 12.3166 32.0416 12.2062C32.1445 12.0674 32.2694 11.9651 32.3552 11.9009C32.4508 11.8293 32.5546 11.7634 32.6537 11.7054C33.0395 11.4793 33.5444 11.2615 33.8156 11.1563C40.7599 8.46427 48.0405 6.66309 55.3405 5.08452C57.6403 4.58722 59.9381 4.11271 62.2284 3.63977C62.8074 3.52019 63.386 3.40071 63.964 3.28099ZM33.3384 13.2984C33.3385 13.2983 33.3395 13.2973 33.3418 13.2955C33.3396 13.2975 33.3384 13.2985 33.3384 13.2984Z" fill="#4B79F8"/>
</svg>
