<svg width="102" height="102" viewBox="0 0 102 102" fill="none" xmlns="http://www.w3.org/2000/svg">
<circle cx="51" cy="51" r="51" fill="#4B79F8"/>
<path d="M30.5811 84.7896C31.6671 81.3118 33.305 76.4174 35.5018 69.3414C45.0779 67.8221 49.0399 70.549 55.1209 59.6765C50.186 61.1887 44.2359 56.8716 44.5543 54.9981C44.8762 53.1282 58.3966 56.3475 67.251 43.7608C56.0901 46.2257 52.5208 40.8001 53.9606 39.982C57.2823 38.0908 67.1413 39.1957 72.3981 34.0711C75.1078 31.4327 76.3778 25.0189 75.2741 22.7311C73.9511 19.9652 65.8784 15.8393 61.4283 16.2288C56.9781 16.6149 49.9985 33.1928 47.9256 33.0653C45.8596 32.9343 45.4387 25.6352 49.054 18.8531C45.2441 20.5424 38.2611 25.791 36.0713 30.2781C31.9926 38.6256 36.4534 57.7818 35.0242 58.4618C33.5915 59.1453 28.777 49.6752 27.3408 45.3793C25.3774 51.963 25.3314 58.5574 31.0658 67.3156C28.9043 73.0635 27.7228 79.6792 27.5424 83.0436C27.4575 85.7317 30.1036 86.3089 30.5811 84.7896Z" fill="white"/>
</svg>
